<?xml version="1.0" encoding="UTF-8" standalone="no"?>
<!-- Created with Inkscape (http://www.inkscape.org/) -->

<svg
   width="110.58347mm"
   height="72.152458mm"
   viewBox="0 0 110.58347 72.152458"
   version="1.1"
   id="svg1"
   xml:space="preserve"
   xmlns:xlink="http://www.w3.org/1999/xlink"
   xmlns="http://www.w3.org/2000/svg"
   xmlns:svg="http://www.w3.org/2000/svg"><defs
     id="defs1"><filter
       id="filter5038"
       color-interpolation-filters="sRGB"
       x="-0.03959619"
       y="-0.063359086"
       width="1.0791924"
       height="1.1267182"><feGaussianBlur
         id="feGaussianBlur5040"
         stdDeviation="29.982762" /></filter><radialGradient
       id="radialGradient4948"
       xlink:href="#linearGradient3484-7"
       gradientUnits="userSpaceOnUse"
       cy="9250.2998"
       cx="4686.1001"
       gradientTransform="matrix(1.3321,0.55359,-0.62047,1.4931,4004.9,-7123.7)"
       r="152.12" /><linearGradient
       id="linearGradient3484-7"><stop
         id="stop3486-2"
         style="stop-color:#808080;stop-opacity:0"
         offset="0" /><stop
         id="stop3488-0"
         style="stop-color:#000000"
         offset="1" /></linearGradient><linearGradient
       id="linearGradient4950"
       y2="9369.4004"
       xlink:href="#linearGradient3498-6"
       gradientUnits="userSpaceOnUse"
       x2="4315"
       y1="9369.4004"
       x1="4673.1001" /><linearGradient
       id="linearGradient3498-6"><stop
         id="stop3500-0"
         style="stop-color:#ffffff"
         offset="0" /><stop
         id="stop3502-2"
         style="stop-color:#ffffff;stop-opacity:0"
         offset="1" /></linearGradient><linearGradient
       id="linearGradient4958"
       y2="9473.9004"
       xlink:href="#linearGradient3498-6"
       gradientUnits="userSpaceOnUse"
       x2="4109.2002"
       y1="7966.2998"
       x1="4081.5" /><clipPath
       id="clipPath3445-9"><path
         id="path3447-7"
         style="fill:none;stroke:#000000;stroke-width:1px"
         d="m 3275.6,8861 c 0,0 187.61,425.93 669.31,476.63 481.7,50.706 867.07,-55.776 1085.1,-152.12 218.03,-96.341 -273.81,-669.31 -273.81,-669.31 l -613.54,-334.66 -501.99,147.05 z" /></clipPath><linearGradient
       id="linearGradient4964"
       y2="9562.5"
       gradientUnits="userSpaceOnUse"
       x2="2657.2"
       gradientTransform="matrix(0.48577,-0.25447,0.21788,0.41592,-68.27,7106.5)"
       y1="8687"
       x1="3697"><stop
         id="stop3548-3"
         style="stop-color:#ffffff"
         offset="0" /><stop
         id="stop3550-7"
         style="stop-color:#ffffff;stop-opacity:0"
         offset="1" /></linearGradient></defs><g
     id="layer1"
     transform="translate(-42.01143,-57.371015)"><g
       id="g5092"
       transform="matrix(0.05638478,0,0,0.05638478,-83.616343,-654.31912)"><g
         id="g3784"
         transform="translate(-993.83,2951.1)"
         style="stroke-width:0.993176;stroke-dasharray:none"><g
           id="g3"><g
             id="g2"><g
               id="g1"><path
                 id="path3948"
                 style="fill:#000000;filter:url(#filter5038)"
                 d="m 3228,12694 c -10.406,-0.157 -23.291,1.093 -29.14,10.74 -4.5325,22.441 8.4659,42.752 16.36,62.729 25.077,53.961 54.796,105.77 77.843,160.72 -125.71,16.019 -250.98,50.618 -360.34,116.16 -67.896,39.777 -127.47,93.857 -173.16,157.88 -7.9918,9.163 -23.308,9.631 -31.5,0.563 -8.6978,-10.206 -13.498,-23.14 -21.453,-33.931 -66.138,-101.66 -162.66,-182.68 -272.98,-232.64 -35.782,-15.081 -74.302,-27.739 -113.63,-24.93 -9.9249,0.212 -20.903,7.405 -19.938,18.374 0.8055,17.23 8.7209,33.106 15.063,48.844 15.812,34.651 34.794,67.781 50.784,102.39 38.54,79.047 71.276,163.05 77.192,251.41 6.0449,88.088 -16.761,175.88 -51.968,255.99 -26.018,60.926 -59.834,118.26 -84.945,179.54 -4.7023,11.842 -9.0867,26.408 -2.7004,38.182 12.077,9.48 28.358,7.399 42.544,6.568 49.36,-5.671 95.844,-25.374 139.12,-48.956 48.368,-26.915 93.411,-60.082 133.95,-97.704 46.577,-44.259 85.242,-96.091 117.83,-151.34 40.191,65.485 92.094,124.42 155.92,167.69 97.752,68.072 212.4,109.34 329.07,130.64 140.85,25.104 286.76,22.072 426.36,-9.175 111.85,-25.784 220.7,-71.094 311.59,-142.03 60.868,-48.218 113.19,-110.26 139.84,-184.13 26.112,-72.769 23.355,-155.71 -9.4859,-225.93 -36.463,-81.91 -103.21,-146.37 -177.49,-194.58 -95.719,-62.194 -205.88,-98.993 -317.77,-119.12 -74.496,-104.96 -179.75,-189.61 -301.55,-232.58 -21.16,-6.642 -43.14,-11.209 -65.42,-11.39 z"
                 transform="translate(993.83001,-2951.0998)" /><g
                 id="g3527"
                 transform="matrix(0.60722,0,0,0.60722,2104.1,4686.3)"
                 style="stroke-width:1.63561;stroke-dasharray:none"><path
                   id="path3506"
                   style="fill:#ffffff;stroke-width:1.63561;stroke-dasharray:none"
                   d="m 4619.3,9363 a 152.12,147.05 0 1 1 -304.23,0 152.12,147.05 0 1 1 304.23,0 z"
                   transform="translate(324.52,-228.18)" /><path
                   id="path3508"
                   style="fill:url(#radialGradient1);stroke-width:1.63561;stroke-dasharray:none"
                   d="m 4619.3,9363 a 152.12,147.05 0 1 1 -304.23,0 152.12,147.05 0 1 1 304.23,0 z"
                   transform="translate(324.52,-228.18)" /><path
                   id="path3510"
                   style="fill:#ffffff;stroke-width:3.25256;stroke-dasharray:none"
                   d="m 4619.3,9363 a 152.12,147.05 0 1 1 -304.23,0 152.12,147.05 0 1 1 304.23,0 z"
                   transform="matrix(0.36667,0,0,0.68966,3239.9,2677.6)" /><path
                   id="path3512"
                   style="fill:#000000;stroke-width:3.53374;stroke-dasharray:none"
                   d="m 4619.3,9363 a 152.12,147.05 0 1 1 -304.23,0 152.12,147.05 0 1 1 304.23,0 z"
                   transform="matrix(0.40083,0,0,0.53448,3102.6,4133)" /><path
                   id="path3514"
                   style="fill:url(#linearGradient1);stroke-width:4.76286;stroke-dasharray:none"
                   d="m 4619.3,9363 a 152.12,147.05 0 1 1 -304.23,0 152.12,147.05 0 1 1 304.23,0 z"
                   transform="matrix(0.29739,0,0,0.39655,3569.3,5419.4)" /></g><path
                 id="path3418"
                 style="fill:#000000;fill-opacity:1;stroke-width:0.993172;stroke-dasharray:none"
                 d="m 4664.96,10209.006 c 0,254.94 -308.99,457.529 -446.21,457.529 -137.22,0 101.41,-206.673 101.41,-461.613 0,-254.9402 -238.63,-461.6136 -101.41,-461.6136 137.22,0 446.21,210.758 446.21,465.6976 z m -897.49,216.511 c 0,254.94 -308.99,457.528 -446.21,457.528 -137.22,0 101.41,-206.673 101.41,-461.613 0,-254.94 -238.63,-461.6132 -101.41,-461.6132 137.22,0 446.21,210.7582 446.21,465.6982 z m 1348.8,10.212 c 0,256.068 -320.09,463.66 -714.95,463.66 -394.86,0 -714.95,-207.584 -714.95,-463.66 0,-256.068 320.09,-463.6595 714.95,-463.6595 394.86,0 714.95,207.5835 714.95,463.6595 z" /><path
                 id="path3429"
                 style="fill:#16bacf;fill-opacity:1;stroke-width:0.993172;stroke-dasharray:none"
                 d="m 4664.96,10209.006 c 0,254.94 -308.99,457.529 -446.21,457.529 -137.22,0 101.41,-206.673 101.41,-461.613 0,-254.9402 -238.63,-461.6136 -101.41,-461.6136 137.22,0 446.21,210.758 446.21,465.6976 z m -897.49,216.511 c 0,254.94 -308.99,457.528 -446.21,457.528 -137.22,0 101.41,-206.673 101.41,-461.613 0,-254.94 -238.63,-461.6132 -101.41,-461.6132 137.22,0 446.21,210.7582 446.21,465.6982 z m 1348.8,10.212 c 0,256.068 -320.09,463.66 -714.95,463.66 -394.86,0 -714.95,-207.584 -714.95,-463.66 0,-256.068 320.09,-463.6595 714.95,-463.6595 394.86,0 714.95,207.5835 714.95,463.6595 z" /><g
                 id="g3457"
                 style="fill:url(#linearGradient4958);stroke-width:1.30517;stroke-dasharray:none"
                 transform="matrix(0.9148,0,0,0.63298,631.98,4340.3)"><g
                   id="g3437"
                   style="fill:url(#linearGradient4);stroke-width:1.30517;stroke-dasharray:none"
                   transform="translate(35.494,70.988)"
                   clip-path="url(#clipPath3445-9)"><path
                     id="path3439"
                     style="fill:url(#linearGradient2);stroke-width:1.30517;stroke-dasharray:none"
                     d="m 4365.8,9155.1 c 0,316.44 -308.99,567.9 -446.21,567.9 -137.22,0 101.41,-256.53 101.41,-572.97 0,-316.44 -249.72,-645.07 -112.5,-645.07 137.22,0 457.3,333.7 457.3,650.14 z m -897.49,268.74 c 0,316.44 -308.99,567.9 -446.21,567.9 -137.22,0 101.41,-256.53 101.41,-572.97 0,-316.44 -238.63,-572.97 -101.41,-572.97 137.22,0 446.21,261.6 446.21,578.04 z m 1348.8,12.676 c 0,317.84 -320.09,575.51 -714.95,575.51 -394.86,0 -714.95,-257.66 -714.95,-575.51 0,-317.84 320.09,-575.51 714.95,-575.51 394.86,0 714.95,257.66 714.95,575.51 z" /><path
                     id="path3441"
                     style="fill:url(#linearGradient3);stroke-width:1.30517;stroke-dasharray:none"
                     d="m 4365.8,9155.1 c 0,316.44 -308.99,567.9 -446.21,567.9 -137.22,0 101.41,-256.53 101.41,-572.97 0,-316.44 -244.17,-645.07 -106.95,-645.07 137.22,0 451.75,333.7 451.75,650.14 z m -897.49,268.74 c 0,316.44 -308.99,567.9 -446.21,567.9 -137.22,0 101.41,-256.53 101.41,-572.97 0,-316.44 -238.63,-572.97 -101.41,-572.97 137.22,0 446.21,261.6 446.21,578.04 z m 1348.8,12.676 c 0,317.84 -320.09,575.51 -714.95,575.51 -394.86,0 -714.95,-257.66 -714.95,-575.51 0,-317.84 320.09,-575.51 714.95,-575.51 394.86,0 714.95,257.66 714.95,575.51 z" /></g></g><g
                 id="g3520"
                 transform="matrix(0.76562,0,0,0.76562,1346.2,3231.2)"
                 style="stroke-width:1.29722;stroke-dasharray:none"><path
                   id="path3480"
                   style="fill:#ffffff;stroke-width:1.29722;stroke-dasharray:none"
                   d="m 4619.3,9363 a 152.12,147.05 0 1 1 -304.23,0 152.12,147.05 0 1 1 304.23,0 z"
                   transform="translate(152.12,-136.91)" /><path
                   id="path3482"
                   style="fill:url(#radialGradient4948);stroke-width:1.29722;stroke-dasharray:none"
                   d="m 4619.3,9363 a 152.12,147.05 0 1 1 -304.23,0 152.12,147.05 0 1 1 304.23,0 z"
                   transform="translate(152.12,-136.91)" /><path
                   id="path3492"
                   style="fill:#ffffff;stroke-width:2.57963;stroke-dasharray:none"
                   d="m 4619.3,9363 a 152.12,147.05 0 1 1 -304.23,0 152.12,147.05 0 1 1 304.23,0 z"
                   transform="matrix(0.36667,0,0,0.68966,3067.5,2768.9)" /><path
                   id="path3494"
                   style="fill:#000000;stroke-width:2.80264;stroke-dasharray:none"
                   d="m 4619.3,9363 a 152.12,147.05 0 1 1 -304.23,0 152.12,147.05 0 1 1 304.23,0 z"
                   transform="matrix(0.40083,0,0,0.53448,2930.2,4224.3)" /><path
                   id="path3496"
                   style="fill:url(#linearGradient4950);stroke-width:3.77747;stroke-dasharray:none"
                   d="m 4619.3,9363 a 152.12,147.05 0 1 1 -304.23,0 152.12,147.05 0 1 1 304.23,0 z"
                   transform="matrix(0.29739,0,0,0.39655,3396.9,5510.7)" /></g><path
                 id="path3538"
                 style="fill:#ffffff;stroke-width:0.993176;stroke-dasharray:none"
                 d="m 5120.7,10534 c -7.2715,15.656 -17.607,30.513 -32.392,41.993 -10.131,9.136 -21.242,17.535 -33.074,25.101 -12.385,6.53 -26.708,9.643 -40.113,14.31 -18.931,4.194 -38.754,1.794 -58.069,2.437 -19.627,-0.308 -39.322,0.562 -58.906,-0.328 -11.194,-1.872 -22.731,-4.29 -32.585,-9.213 -11.353,-6.708 -5.5016,-23.537 8.1964,-24.372 12.481,-0.112 23.369,7.916 36.127,6.235 29.824,-0.232 59.676,0.462 89.483,-0.308 10.444,-1.138 19.7,-5.957 29.732,-8.433 12.96,-4.404 21.631,-14.211 32.372,-21.317 7.897,-8.083 17.609,-15.124 22.494,-25.068 5.3968,-7.31 6.5194,-18.416 17.728,-21.326 11.7,-3.314 24.78,7.064 20.505,17.074 l -0.6388,1.59 -0.8617,1.625 z" /><path
                 id="path3541"
                 style="fill:url(#linearGradient4964);stroke-width:0.993176;stroke-dasharray:none"
                 d="m 3646,10228 c 85.116,162.48 79.366,332.39 37.195,354.48 -42.171,22.092 -145.36,-91.717 -230.47,-254.2 -85.116,-162.48 -150.35,-322.25 -108.18,-344.34 42.171,-22.091 216.35,81.576 301.46,244.06 z" /></g></g></g></g></g></g></svg>
